
<region>
sample=../UC/A/Piano_UC_MicA_C0_vl1.flac
lokey=21
hikey=22
pitch_keycenter=24
ampeg_release=1.200

<region>
sample=../UC/A/Piano_UC_MicA_D0_vl1.flac
lokey=23
hikey=24
pitch_keycenter=26
ampeg_release=1.200

<region>
sample=../UC/A/Piano_UC_MicA_E0_vl1.flac
lokey=25
hikey=25
pitch_keycenter=28
ampeg_release=1.200

<region>
sample=../UC/A/Piano_UC_MicA_F0_vl1.flac
lokey=26
hikey=27
pitch_keycenter=29
ampeg_release=1.200

<region>
sample=../UC/A/Piano_UC_MicA_G0_vl1.flac
lokey=28
hikey=29
pitch_keycenter=31
ampeg_release=1.100

<region>
sample=../UC/A/Piano_UC_MicA_A0_vl1.flac
lokey=30
hikey=31
pitch_keycenter=33
ampeg_release=1.100

<region>
sample=../UC/A/Piano_UC_MicA_B0_vl1.flac
lokey=32
hikey=32
pitch_keycenter=35
ampeg_release=1.100

<region>
sample=../UC/A/Piano_UC_MicA_C1_vl1.flac
lokey=33
hikey=34
pitch_keycenter=36
ampeg_release=1

<region>
sample=../UC/A/Piano_UC_MicA_D1_vl1.flac
lokey=35
hikey=36
pitch_keycenter=38
ampeg_release=1

<region>
sample=../UC/A/Piano_UC_MicA_E1_vl1.flac
lokey=37
hikey=38
pitch_keycenter=40
ampeg_release=1

<region>
sample=../UC/A/Piano_UC_MicA_F1_vl1.flac
lokey=38
hikey=39
pitch_keycenter=41
ampeg_release=1

<region>
sample=../UC/A/Piano_UC_MicA_G1_vl1.flac
lokey=40
hikey=41
pitch_keycenter=43
ampeg_release=0.850

<region>
sample=../UC/A/Piano_UC_MicA_A1_vl1.flac
lokey=42
hikey=43
pitch_keycenter=45
ampeg_release=0.850

<region>
sample=../UC/A/Piano_UC_MicA_B1_vl1.flac
lokey=44
hikey=44
pitch_keycenter=47
ampeg_release=0.850

<region>
sample=../UC/A/Piano_UC_MicA_C2_vl1.flac
lokey=45
hikey=46
pitch_keycenter=48
ampeg_release=0.700

<region>
sample=../UC/A/Piano_UC_MicA_D2_vl1.flac
lokey=47
hikey=48
pitch_keycenter=50
ampeg_release=0.700

<region>
sample=../UC/A/Piano_UC_MicA_E2_vl1.flac
lokey=49
hikey=49
pitch_keycenter=52
ampeg_release=0.700

<region>
sample=../UC/A/Piano_UC_MicA_F2_vl1.flac
lokey=50
hikey=51
pitch_keycenter=53
ampeg_release=0.700

<region>
sample=../UC/A/Piano_UC_MicA_G2_vl1.flac
lokey=52
hikey=53
pitch_keycenter=55
ampeg_release=0.600

<region>
sample=../UC/A/Piano_UC_MicA_A2_vl1.flac
lokey=54
hikey=55
pitch_keycenter=57
ampeg_release=0.600

<region>
sample=../UC/A/Piano_UC_MicA_B2_vl1.flac
lokey=56
hikey=56
pitch_keycenter=59
ampeg_release=0.600

<region>
sample=../UC/A/Piano_UC_MicA_C3_vl1.flac
lokey=57
hikey=58
ampeg_release=0.570

<region>
sample=../UC/A/Piano_UC_MicA_D3_vl1.flac
lokey=59
hikey=60
pitch_keycenter=62
ampeg_release=0.570

<region>
sample=../UC/A/Piano_UC_MicA_E3_vl1.flac
lokey=61
hikey=61
pitch_keycenter=64
ampeg_release=0.570

<region>
sample=../UC/A/Piano_UC_MicA_F3_vl1.flac
lokey=62
hikey=63
pitch_keycenter=65
ampeg_release=0.570

<region>
sample=../UC/A/Piano_UC_MicA_G3_vl1.flac
lokey=64
hikey=65
pitch_keycenter=67
ampeg_release=0.530

<region>
sample=../UC/A/Piano_UC_MicA_A3_vl1.flac
lokey=66
hikey=67
pitch_keycenter=69
ampeg_release=0.530

<region>
sample=../UC/A/Piano_UC_MicA_C4_vl1.flac
lokey=68
hikey=70
pitch_keycenter=72
ampeg_release=0.450

<region>
sample=../UC/A/Piano_UC_MicA_D4_vl1.flac
lokey=71
hikey=72
pitch_keycenter=74
ampeg_release=0.450

<region>
sample=../UC/A/Piano_UC_MicA_E4_vl1.flac
lokey=73
hikey=73
pitch_keycenter=76
ampeg_release=0.450

<region>
sample=../UC/A/Piano_UC_MicA_F4_vl1.flac
lokey=74
hikey=75
pitch_keycenter=77
ampeg_release=0.430

<region>
sample=../UC/A/Piano_UC_MicA_G4_vl1.flac
lokey=76
hikey=77
pitch_keycenter=79
ampeg_release=0.430

<region>
sample=../UC/A/Piano_UC_MicA_A4_vl1.flac
lokey=78
hikey=79
pitch_keycenter=81
ampeg_release=0.430

<region>
sample=../UC/A/Piano_UC_MicA_B4_vl1.flac
lokey=80
hikey=80
pitch_keycenter=83
ampeg_release=0.430

<region>
sample=../UC/A/Piano_UC_MicA_C5_vl1.flac
lokey=81
hikey=82
pitch_keycenter=84
ampeg_release=0.400

<region>
sample=../UC/A/Piano_UC_MicA_D5_vl1.flac
lokey=83
hikey=84
pitch_keycenter=86
ampeg_release=0.400

<region>
sample=../UC/A/Piano_UC_MicA_E5_vl1.flac
lokey=85
hikey=85
pitch_keycenter=88
ampeg_release=0.400

<region>
sample=../UC/A/Piano_UC_MicA_F5_vl1.flac
lokey=86
hikey=87
pitch_keycenter=89
ampeg_release=0.400

<region>
sample=../UC/A/Piano_UC_MicA_G5_vl1.flac
lokey=88
hikey=89
pitch_keycenter=91
ampeg_release=0.400

<region>
sample=../UC/A/Piano_UC_MicA_A5_vl1.flac
lokey=90
hikey=91
loop_mode=one_shot
pitch_keycenter=93

<region>
sample=../UC/A/Piano_UC_MicA_B5_vl1.flac
lokey=92
hikey=92
loop_mode=one_shot
pitch_keycenter=95

<region>
sample=../UC/A/Piano_UC_MicA_C6_vl1.flac
lokey=93
hikey=94
loop_mode=one_shot
pitch_keycenter=96

<region>
sample=../UC/A/Piano_UC_MicA_D6_vl1.flac
lokey=95
hikey=96
loop_mode=one_shot
pitch_keycenter=98

<region>
sample=../UC/A/Piano_UC_MicA_E6_vl1.flac
lokey=97
hikey=97
loop_mode=one_shot
pitch_keycenter=100

<region>
sample=../UC/A/Piano_UC_MicA_F6_vl1.flac
lokey=98
hikey=99
loop_mode=one_shot
pitch_keycenter=101

<region>
sample=../UC/A/Piano_UC_MicA_G6_vl1.flac
lokey=100
hikey=101
loop_mode=one_shot
pitch_keycenter=103

<region>
sample=../UC/A/Piano_UC_MicA_A6_vl1.flac
lokey=102
hikey=103
loop_mode=one_shot
pitch_keycenter=105

<region>
sample=../UC/A/Piano_UC_MicA_A6_vl1.flac
lokey=107
hikey=107
loop_mode=one_shot
pitch_keycenter=105

<region>
sample=../UC/A/Piano_UC_MicA_B6_vl1.flac
lokey=104
hikey=104
loop_mode=one_shot
pitch_keycenter=107

<region>
sample=../UC/A/Piano_UC_MicA_B6_vl1.flac
lokey=108
hikey=108
loop_mode=one_shot
pitch_keycenter=107

<region>
sample=../UC/A/Piano_UC_MicA_C7_vl1.flac
lokey=105
hikey=106
loop_mode=one_shot
pitch_keycenter=108
